<mxfile host="app.diagrams.net" modified="2024-06-16T14:39:13.732Z" agent="Mozilla/5.0 (Windows NT 10.0; Win64; x64) AppleWebKit/537.36 (KHTML, like Gecko) Chrome/126.0.0.0 Safari/537.36" etag="lqSGVAf0kuQd7taq5Mzq" version="24.5.4" type="github">
  <diagram name="Page-1" id="MJt6TIyj6dViq5LmySz2">
    <mxGraphModel dx="2261" dy="786" grid="1" gridSize="10" guides="1" tooltips="1" connect="1" arrows="1" fold="1" page="1" pageScale="1" pageWidth="827" pageHeight="1169" math="0" shadow="0">
      <root>
        <mxCell id="0" />
        <mxCell id="1" parent="0" />
        <mxCell id="BHx81bOoujya5tNmvaLa-6" style="edgeStyle=orthogonalEdgeStyle;rounded=0;orthogonalLoop=1;jettySize=auto;html=1;exitX=1;exitY=0.5;exitDx=0;exitDy=0;entryX=0;entryY=0.5;entryDx=0;entryDy=0;endArrow=none;endFill=0;" parent="1" source="BHx81bOoujya5tNmvaLa-1" target="BHx81bOoujya5tNmvaLa-5" edge="1">
          <mxGeometry relative="1" as="geometry" />
        </mxCell>
        <mxCell id="BHx81bOoujya5tNmvaLa-23" value="é escrito" style="edgeLabel;html=1;align=center;verticalAlign=middle;resizable=0;points=[];fontFamily=Helvetica;fontSize=11;fontColor=default;labelBackgroundColor=default;" parent="BHx81bOoujya5tNmvaLa-6" vertex="1" connectable="0">
          <mxGeometry x="-0.0606" relative="1" as="geometry">
            <mxPoint x="5" y="-10" as="offset" />
          </mxGeometry>
        </mxCell>
        <mxCell id="BHx81bOoujya5tNmvaLa-90" style="edgeStyle=none;rounded=0;orthogonalLoop=1;jettySize=auto;html=1;exitX=0;exitY=0.5;exitDx=0;exitDy=0;entryX=1;entryY=0.5;entryDx=0;entryDy=0;strokeColor=default;align=center;verticalAlign=middle;fontFamily=Helvetica;fontSize=11;fontColor=default;labelBackgroundColor=default;endArrow=none;endFill=0;" parent="1" source="BHx81bOoujya5tNmvaLa-1" target="BHx81bOoujya5tNmvaLa-35" edge="1">
          <mxGeometry relative="1" as="geometry" />
        </mxCell>
        <mxCell id="BHx81bOoujya5tNmvaLa-1" value="Livro" style="rounded=0;whiteSpace=wrap;html=1;" parent="1" vertex="1">
          <mxGeometry x="120" y="160" width="90" height="50" as="geometry" />
        </mxCell>
        <mxCell id="BHx81bOoujya5tNmvaLa-47" style="edgeStyle=none;rounded=0;orthogonalLoop=1;jettySize=auto;html=1;exitX=0.5;exitY=1;exitDx=0;exitDy=0;entryX=0.75;entryY=0;entryDx=0;entryDy=0;strokeColor=default;align=center;verticalAlign=middle;fontFamily=Helvetica;fontSize=11;fontColor=default;labelBackgroundColor=default;endArrow=none;endFill=0;" parent="1" source="BHx81bOoujya5tNmvaLa-2" target="BHx81bOoujya5tNmvaLa-1" edge="1">
          <mxGeometry relative="1" as="geometry" />
        </mxCell>
        <mxCell id="BHx81bOoujya5tNmvaLa-2" value="título" style="ellipse;whiteSpace=wrap;html=1;" parent="1" vertex="1">
          <mxGeometry x="144" y="50" width="60" height="30" as="geometry" />
        </mxCell>
        <mxCell id="BHx81bOoujya5tNmvaLa-5" value="Autor" style="rounded=0;whiteSpace=wrap;html=1;" parent="1" vertex="1">
          <mxGeometry x="444" y="160" width="90" height="50" as="geometry" />
        </mxCell>
        <mxCell id="BHx81bOoujya5tNmvaLa-7" value="1..*" style="text;html=1;align=center;verticalAlign=middle;resizable=0;points=[];autosize=1;strokeColor=none;fillColor=none;" parent="1" vertex="1">
          <mxGeometry x="414" y="160" width="40" height="30" as="geometry" />
        </mxCell>
        <mxCell id="BHx81bOoujya5tNmvaLa-8" value="1..*" style="text;html=1;align=center;verticalAlign=middle;resizable=0;points=[];autosize=1;strokeColor=none;fillColor=none;" parent="1" vertex="1">
          <mxGeometry x="210" y="160" width="40" height="30" as="geometry" />
        </mxCell>
        <mxCell id="BHx81bOoujya5tNmvaLa-46" style="edgeStyle=none;rounded=0;orthogonalLoop=1;jettySize=auto;html=1;exitX=0.5;exitY=1;exitDx=0;exitDy=0;entryX=1;entryY=0;entryDx=0;entryDy=0;strokeColor=default;align=center;verticalAlign=middle;fontFamily=Helvetica;fontSize=11;fontColor=default;labelBackgroundColor=default;endArrow=none;endFill=0;" parent="1" source="BHx81bOoujya5tNmvaLa-10" target="BHx81bOoujya5tNmvaLa-1" edge="1">
          <mxGeometry relative="1" as="geometry" />
        </mxCell>
        <mxCell id="BHx81bOoujya5tNmvaLa-10" value="id" style="ellipse;whiteSpace=wrap;html=1;fontStyle=4" parent="1" vertex="1">
          <mxGeometry x="210" y="60" width="60" height="30" as="geometry" />
        </mxCell>
        <mxCell id="BHx81bOoujya5tNmvaLa-48" value="" style="edgeStyle=none;rounded=0;orthogonalLoop=1;jettySize=auto;html=1;strokeColor=default;align=center;verticalAlign=middle;fontFamily=Helvetica;fontSize=11;fontColor=default;labelBackgroundColor=default;endArrow=none;endFill=0;" parent="1" source="BHx81bOoujya5tNmvaLa-13" target="BHx81bOoujya5tNmvaLa-1" edge="1">
          <mxGeometry relative="1" as="geometry" />
        </mxCell>
        <mxCell id="BHx81bOoujya5tNmvaLa-13" value="ano" style="ellipse;whiteSpace=wrap;html=1;" parent="1" vertex="1">
          <mxGeometry x="84" y="60" width="60" height="30" as="geometry" />
        </mxCell>
        <mxCell id="BHx81bOoujya5tNmvaLa-94" style="edgeStyle=none;rounded=0;orthogonalLoop=1;jettySize=auto;html=1;exitX=0;exitY=1;exitDx=0;exitDy=0;entryX=1;entryY=0;entryDx=0;entryDy=0;strokeColor=default;align=center;verticalAlign=middle;fontFamily=Helvetica;fontSize=11;fontColor=default;labelBackgroundColor=default;endArrow=none;endFill=0;" parent="1" source="BHx81bOoujya5tNmvaLa-16" target="BHx81bOoujya5tNmvaLa-29" edge="1">
          <mxGeometry relative="1" as="geometry" />
        </mxCell>
        <mxCell id="BHx81bOoujya5tNmvaLa-16" value="custoDireitoPublicacao" style="ellipse;whiteSpace=wrap;html=1;" parent="1" vertex="1">
          <mxGeometry x="200" y="235" width="140" height="30" as="geometry" />
        </mxCell>
        <mxCell id="BHx81bOoujya5tNmvaLa-24" value="País" style="rounded=0;whiteSpace=wrap;html=1;" parent="1" vertex="1">
          <mxGeometry x="120" y="375" width="90" height="65" as="geometry" />
        </mxCell>
        <mxCell id="BHx81bOoujya5tNmvaLa-27" value="0..*" style="text;html=1;align=center;verticalAlign=middle;resizable=0;points=[];autosize=1;strokeColor=none;fillColor=none;fontFamily=Helvetica;fontSize=11;fontColor=default;labelBackgroundColor=default;" parent="1" vertex="1">
          <mxGeometry x="160" y="205" width="40" height="30" as="geometry" />
        </mxCell>
        <mxCell id="BHx81bOoujya5tNmvaLa-28" value="0..*" style="text;html=1;align=center;verticalAlign=middle;resizable=0;points=[];autosize=1;strokeColor=none;fillColor=none;fontFamily=Helvetica;fontSize=11;fontColor=default;labelBackgroundColor=default;" parent="1" vertex="1">
          <mxGeometry x="160" y="350" width="40" height="30" as="geometry" />
        </mxCell>
        <mxCell id="BHx81bOoujya5tNmvaLa-93" style="edgeStyle=none;rounded=0;orthogonalLoop=1;jettySize=auto;html=1;exitX=0.5;exitY=0;exitDx=0;exitDy=0;entryX=0.5;entryY=1;entryDx=0;entryDy=0;strokeColor=default;align=center;verticalAlign=middle;fontFamily=Helvetica;fontSize=11;fontColor=default;labelBackgroundColor=default;endArrow=none;endFill=0;" parent="1" source="BHx81bOoujya5tNmvaLa-29" target="BHx81bOoujya5tNmvaLa-1" edge="1">
          <mxGeometry relative="1" as="geometry" />
        </mxCell>
        <mxCell id="BHx81bOoujya5tNmvaLa-95" style="edgeStyle=none;rounded=0;orthogonalLoop=1;jettySize=auto;html=1;exitX=0.5;exitY=1;exitDx=0;exitDy=0;entryX=0.5;entryY=0;entryDx=0;entryDy=0;strokeColor=default;align=center;verticalAlign=middle;fontFamily=Helvetica;fontSize=11;fontColor=default;labelBackgroundColor=default;endArrow=none;endFill=0;" parent="1" source="BHx81bOoujya5tNmvaLa-29" target="BHx81bOoujya5tNmvaLa-24" edge="1">
          <mxGeometry relative="1" as="geometry" />
        </mxCell>
        <mxCell id="BHx81bOoujya5tNmvaLa-29" value="&lt;span style=&quot;text-wrap: nowrap;&quot;&gt;pode ser publicado&lt;/span&gt;" style="rhombus;whiteSpace=wrap;html=1;fontFamily=Helvetica;fontSize=11;fontColor=default;labelBackgroundColor=default;" parent="1" vertex="1">
          <mxGeometry x="97" y="264" width="136" height="62" as="geometry" />
        </mxCell>
        <mxCell id="BHx81bOoujya5tNmvaLa-33" style="edgeStyle=none;rounded=0;orthogonalLoop=1;jettySize=auto;html=1;exitX=0.5;exitY=0;exitDx=0;exitDy=0;strokeColor=default;align=center;verticalAlign=middle;fontFamily=Helvetica;fontSize=11;fontColor=default;labelBackgroundColor=default;endArrow=none;endFill=0;" parent="1" edge="1">
          <mxGeometry relative="1" as="geometry">
            <mxPoint x="-305.5" y="203.5" as="sourcePoint" />
            <mxPoint x="-305.5" y="203.5" as="targetPoint" />
          </mxGeometry>
        </mxCell>
        <mxCell id="BHx81bOoujya5tNmvaLa-68" style="edgeStyle=orthogonalEdgeStyle;rounded=0;orthogonalLoop=1;jettySize=auto;html=1;exitX=0.5;exitY=1;exitDx=0;exitDy=0;entryX=0.5;entryY=0;entryDx=0;entryDy=0;strokeColor=default;align=center;verticalAlign=middle;fontFamily=Helvetica;fontSize=11;fontColor=default;labelBackgroundColor=default;endArrow=none;endFill=0;" parent="1" source="BHx81bOoujya5tNmvaLa-35" target="BHx81bOoujya5tNmvaLa-52" edge="1">
          <mxGeometry relative="1" as="geometry" />
        </mxCell>
        <mxCell id="BHx81bOoujya5tNmvaLa-116" style="edgeStyle=none;rounded=0;orthogonalLoop=1;jettySize=auto;html=1;exitX=1;exitY=0.75;exitDx=0;exitDy=0;entryX=0;entryY=0;entryDx=0;entryDy=0;strokeColor=default;align=center;verticalAlign=middle;fontFamily=Helvetica;fontSize=11;fontColor=default;labelBackgroundColor=default;endArrow=none;endFill=0;" parent="1" source="BHx81bOoujya5tNmvaLa-35" target="BHx81bOoujya5tNmvaLa-115" edge="1">
          <mxGeometry relative="1" as="geometry" />
        </mxCell>
        <mxCell id="DlXQvSzPY2m-7Eqi57UK-12" style="edgeStyle=none;rounded=0;orthogonalLoop=1;jettySize=auto;html=1;exitX=0.75;exitY=1;exitDx=0;exitDy=0;entryX=0;entryY=0;entryDx=0;entryDy=0;strokeColor=default;align=center;verticalAlign=middle;fontFamily=Helvetica;fontSize=11;fontColor=default;labelBackgroundColor=default;endArrow=none;endFill=0;" edge="1" parent="1" source="BHx81bOoujya5tNmvaLa-35" target="DlXQvSzPY2m-7Eqi57UK-11">
          <mxGeometry relative="1" as="geometry" />
        </mxCell>
        <mxCell id="BHx81bOoujya5tNmvaLa-35" value="Edição" style="rounded=0;whiteSpace=wrap;html=1;" parent="1" vertex="1">
          <mxGeometry x="-239.5" y="158.5" width="90" height="50" as="geometry" />
        </mxCell>
        <mxCell id="BHx81bOoujya5tNmvaLa-38" value="1..*" style="text;html=1;align=center;verticalAlign=middle;resizable=0;points=[];autosize=1;strokeColor=none;fillColor=none;fontFamily=Helvetica;fontSize=11;fontColor=default;labelBackgroundColor=default;" parent="1" vertex="1">
          <mxGeometry x="-160.5" y="158.5" width="40" height="30" as="geometry" />
        </mxCell>
        <mxCell id="BHx81bOoujya5tNmvaLa-39" value="1" style="text;html=1;align=center;verticalAlign=middle;resizable=0;points=[];autosize=1;strokeColor=none;fillColor=none;fontFamily=Helvetica;fontSize=11;fontColor=default;labelBackgroundColor=default;" parent="1" vertex="1">
          <mxGeometry x="99" y="160" width="30" height="30" as="geometry" />
        </mxCell>
        <mxCell id="BHx81bOoujya5tNmvaLa-110" style="edgeStyle=orthogonalEdgeStyle;rounded=0;orthogonalLoop=1;jettySize=auto;html=1;entryX=0.5;entryY=1;entryDx=0;entryDy=0;strokeColor=default;align=center;verticalAlign=middle;fontFamily=Helvetica;fontSize=11;fontColor=default;labelBackgroundColor=default;endArrow=none;endFill=0;exitX=0.5;exitY=1;exitDx=0;exitDy=0;" parent="1" source="BHx81bOoujya5tNmvaLa-52" target="BHx81bOoujya5tNmvaLa-53" edge="1">
          <mxGeometry relative="1" as="geometry">
            <Array as="points">
              <mxPoint x="-194" y="540" />
              <mxPoint x="489" y="540" />
            </Array>
          </mxGeometry>
        </mxCell>
        <mxCell id="BHx81bOoujya5tNmvaLa-52" value="Tradução" style="rounded=0;whiteSpace=wrap;html=1;" parent="1" vertex="1">
          <mxGeometry x="-239.5" y="390" width="90" height="50" as="geometry" />
        </mxCell>
        <mxCell id="BHx81bOoujya5tNmvaLa-53" value="Tradutor" style="rounded=0;whiteSpace=wrap;html=1;" parent="1" vertex="1">
          <mxGeometry x="444" y="375" width="90" height="50" as="geometry" />
        </mxCell>
        <mxCell id="BHx81bOoujya5tNmvaLa-61" style="edgeStyle=none;rounded=0;orthogonalLoop=1;jettySize=auto;html=1;exitX=1;exitY=0.5;exitDx=0;exitDy=0;entryX=0;entryY=0.25;entryDx=0;entryDy=0;strokeColor=default;align=center;verticalAlign=middle;fontFamily=Helvetica;fontSize=11;fontColor=default;labelBackgroundColor=default;endArrow=none;endFill=0;" parent="1" source="BHx81bOoujya5tNmvaLa-54" target="BHx81bOoujya5tNmvaLa-52" edge="1">
          <mxGeometry relative="1" as="geometry" />
        </mxCell>
        <mxCell id="BHx81bOoujya5tNmvaLa-54" value="custo" style="ellipse;whiteSpace=wrap;html=1;" parent="1" vertex="1">
          <mxGeometry x="-335.5" y="357" width="60" height="30" as="geometry" />
        </mxCell>
        <mxCell id="BHx81bOoujya5tNmvaLa-58" style="edgeStyle=none;rounded=0;orthogonalLoop=1;jettySize=auto;html=1;exitX=1;exitY=0.5;exitDx=0;exitDy=0;entryX=0;entryY=0.25;entryDx=0;entryDy=0;strokeColor=default;align=center;verticalAlign=middle;fontFamily=Helvetica;fontSize=11;fontColor=default;labelBackgroundColor=default;endArrow=none;endFill=0;" parent="1" source="BHx81bOoujya5tNmvaLa-57" target="BHx81bOoujya5tNmvaLa-35" edge="1">
          <mxGeometry relative="1" as="geometry" />
        </mxCell>
        <mxCell id="BHx81bOoujya5tNmvaLa-57" value="isbn" style="ellipse;whiteSpace=wrap;html=1;fontStyle=0" parent="1" vertex="1">
          <mxGeometry x="-329.5" y="101.5" width="60" height="30" as="geometry" />
        </mxCell>
        <mxCell id="BHx81bOoujya5tNmvaLa-62" style="edgeStyle=none;rounded=0;orthogonalLoop=1;jettySize=auto;html=1;exitX=1;exitY=0.5;exitDx=0;exitDy=0;entryX=0;entryY=0.5;entryDx=0;entryDy=0;strokeColor=default;align=center;verticalAlign=middle;fontFamily=Helvetica;fontSize=11;fontColor=default;labelBackgroundColor=default;endArrow=none;endFill=0;" parent="1" source="BHx81bOoujya5tNmvaLa-59" target="BHx81bOoujya5tNmvaLa-52" edge="1">
          <mxGeometry relative="1" as="geometry" />
        </mxCell>
        <mxCell id="BHx81bOoujya5tNmvaLa-59" value="título" style="ellipse;whiteSpace=wrap;html=1;" parent="1" vertex="1">
          <mxGeometry x="-335.5" y="397" width="60" height="30" as="geometry" />
        </mxCell>
        <mxCell id="BHx81bOoujya5tNmvaLa-63" style="edgeStyle=none;rounded=0;orthogonalLoop=1;jettySize=auto;html=1;exitX=1;exitY=0.5;exitDx=0;exitDy=0;entryX=0;entryY=0.75;entryDx=0;entryDy=0;strokeColor=default;align=center;verticalAlign=middle;fontFamily=Helvetica;fontSize=11;fontColor=default;labelBackgroundColor=default;endArrow=none;endFill=0;" parent="1" source="BHx81bOoujya5tNmvaLa-60" target="BHx81bOoujya5tNmvaLa-52" edge="1">
          <mxGeometry relative="1" as="geometry" />
        </mxCell>
        <mxCell id="BHx81bOoujya5tNmvaLa-60" value="ano" style="ellipse;whiteSpace=wrap;html=1;" parent="1" vertex="1">
          <mxGeometry x="-335.5" y="437" width="60" height="30" as="geometry" />
        </mxCell>
        <mxCell id="BHx81bOoujya5tNmvaLa-65" style="edgeStyle=none;rounded=0;orthogonalLoop=1;jettySize=auto;html=1;exitX=1;exitY=0.5;exitDx=0;exitDy=0;entryX=0;entryY=1;entryDx=0;entryDy=0;strokeColor=default;align=center;verticalAlign=middle;fontFamily=Helvetica;fontSize=11;fontColor=default;labelBackgroundColor=default;endArrow=none;endFill=0;" parent="1" source="BHx81bOoujya5tNmvaLa-64" target="BHx81bOoujya5tNmvaLa-52" edge="1">
          <mxGeometry relative="1" as="geometry" />
        </mxCell>
        <mxCell id="BHx81bOoujya5tNmvaLa-64" value="língua" style="ellipse;whiteSpace=wrap;html=1;" parent="1" vertex="1">
          <mxGeometry x="-335.5" y="477" width="60" height="30" as="geometry" />
        </mxCell>
        <mxCell id="BHx81bOoujya5tNmvaLa-67" style="edgeStyle=none;rounded=0;orthogonalLoop=1;jettySize=auto;html=1;exitX=1;exitY=0;exitDx=0;exitDy=0;entryX=0.25;entryY=1;entryDx=0;entryDy=0;strokeColor=default;align=center;verticalAlign=middle;fontFamily=Helvetica;fontSize=11;fontColor=default;labelBackgroundColor=default;endArrow=none;endFill=0;" parent="1" source="BHx81bOoujya5tNmvaLa-66" target="BHx81bOoujya5tNmvaLa-52" edge="1">
          <mxGeometry relative="1" as="geometry" />
        </mxCell>
        <mxCell id="BHx81bOoujya5tNmvaLa-66" value="id" style="ellipse;whiteSpace=wrap;html=1;fontStyle=4" parent="1" vertex="1">
          <mxGeometry x="-319.5" y="517" width="60" height="30" as="geometry" />
        </mxCell>
        <mxCell id="BHx81bOoujya5tNmvaLa-69" value="0..1" style="text;html=1;align=center;verticalAlign=middle;resizable=0;points=[];autosize=1;strokeColor=none;fillColor=none;fontFamily=Helvetica;fontSize=11;fontColor=default;labelBackgroundColor=default;" parent="1" vertex="1">
          <mxGeometry x="-230" y="367" width="40" height="30" as="geometry" />
        </mxCell>
        <mxCell id="BHx81bOoujya5tNmvaLa-70" value="1..*" style="text;html=1;align=center;verticalAlign=middle;resizable=0;points=[];autosize=1;strokeColor=none;fillColor=none;fontFamily=Helvetica;fontSize=11;fontColor=default;labelBackgroundColor=default;" parent="1" vertex="1">
          <mxGeometry x="-230" y="203.5" width="40" height="30" as="geometry" />
        </mxCell>
        <mxCell id="BHx81bOoujya5tNmvaLa-73" style="edgeStyle=none;rounded=0;orthogonalLoop=1;jettySize=auto;html=1;exitX=1;exitY=0.5;exitDx=0;exitDy=0;entryX=0;entryY=0.5;entryDx=0;entryDy=0;strokeColor=default;align=center;verticalAlign=middle;fontFamily=Helvetica;fontSize=11;fontColor=default;labelBackgroundColor=default;endArrow=none;endFill=0;" parent="1" source="BHx81bOoujya5tNmvaLa-71" target="BHx81bOoujya5tNmvaLa-35" edge="1">
          <mxGeometry relative="1" as="geometry" />
        </mxCell>
        <mxCell id="BHx81bOoujya5tNmvaLa-71" value="num" style="ellipse;whiteSpace=wrap;html=1;fontStyle=0" parent="1" vertex="1">
          <mxGeometry x="-335.5" y="138.5" width="60" height="30" as="geometry" />
        </mxCell>
        <mxCell id="BHx81bOoujya5tNmvaLa-74" style="edgeStyle=none;rounded=0;orthogonalLoop=1;jettySize=auto;html=1;entryX=0;entryY=0.75;entryDx=0;entryDy=0;strokeColor=default;align=center;verticalAlign=middle;fontFamily=Helvetica;fontSize=11;fontColor=default;labelBackgroundColor=default;endArrow=none;endFill=0;" parent="1" source="BHx81bOoujya5tNmvaLa-72" target="BHx81bOoujya5tNmvaLa-35" edge="1">
          <mxGeometry relative="1" as="geometry" />
        </mxCell>
        <mxCell id="BHx81bOoujya5tNmvaLa-72" value="valorVendas" style="ellipse;whiteSpace=wrap;html=1;fontStyle=0" parent="1" vertex="1">
          <mxGeometry x="-350" y="173.5" width="74.5" height="30" as="geometry" />
        </mxCell>
        <mxCell id="BHx81bOoujya5tNmvaLa-76" style="edgeStyle=none;rounded=0;orthogonalLoop=1;jettySize=auto;html=1;exitX=1;exitY=0.5;exitDx=0;exitDy=0;entryX=0;entryY=1;entryDx=0;entryDy=0;strokeColor=default;align=center;verticalAlign=middle;fontFamily=Helvetica;fontSize=11;fontColor=default;labelBackgroundColor=default;endArrow=none;endFill=0;" parent="1" source="BHx81bOoujya5tNmvaLa-75" target="BHx81bOoujya5tNmvaLa-35" edge="1">
          <mxGeometry relative="1" as="geometry" />
        </mxCell>
        <mxCell id="BHx81bOoujya5tNmvaLa-75" value="custoProducao" style="ellipse;whiteSpace=wrap;html=1;fontStyle=0" parent="1" vertex="1">
          <mxGeometry x="-350" y="218.5" width="101" height="30" as="geometry" />
        </mxCell>
        <mxCell id="BHx81bOoujya5tNmvaLa-106" style="edgeStyle=none;rounded=0;orthogonalLoop=1;jettySize=auto;html=1;exitX=0;exitY=0.5;exitDx=0;exitDy=0;entryX=1;entryY=0;entryDx=0;entryDy=0;strokeColor=default;align=center;verticalAlign=middle;fontFamily=Helvetica;fontSize=11;fontColor=default;labelBackgroundColor=default;endArrow=none;endFill=0;" parent="1" source="BHx81bOoujya5tNmvaLa-77" target="BHx81bOoujya5tNmvaLa-89" edge="1">
          <mxGeometry relative="1" as="geometry" />
        </mxCell>
        <mxCell id="BHx81bOoujya5tNmvaLa-77" value="dataNascimento" style="ellipse;whiteSpace=wrap;html=1;fontStyle=0" parent="1" vertex="1">
          <mxGeometry x="794" y="205" width="120" height="30" as="geometry" />
        </mxCell>
        <mxCell id="BHx81bOoujya5tNmvaLa-104" style="edgeStyle=none;rounded=0;orthogonalLoop=1;jettySize=auto;html=1;exitX=0;exitY=1;exitDx=0;exitDy=0;entryX=0.75;entryY=0;entryDx=0;entryDy=0;strokeColor=default;align=center;verticalAlign=middle;fontFamily=Helvetica;fontSize=11;fontColor=default;labelBackgroundColor=default;endArrow=none;endFill=0;" parent="1" source="BHx81bOoujya5tNmvaLa-78" target="BHx81bOoujya5tNmvaLa-89" edge="1">
          <mxGeometry relative="1" as="geometry" />
        </mxCell>
        <mxCell id="BHx81bOoujya5tNmvaLa-78" value="id" style="ellipse;whiteSpace=wrap;html=1;fontStyle=4" parent="1" vertex="1">
          <mxGeometry x="774" y="160" width="60" height="30" as="geometry" />
        </mxCell>
        <mxCell id="BHx81bOoujya5tNmvaLa-107" style="edgeStyle=none;rounded=0;orthogonalLoop=1;jettySize=auto;html=1;entryX=1;entryY=0.25;entryDx=0;entryDy=0;strokeColor=default;align=center;verticalAlign=middle;fontFamily=Helvetica;fontSize=11;fontColor=default;labelBackgroundColor=default;endArrow=none;endFill=0;" parent="1" source="BHx81bOoujya5tNmvaLa-81" target="BHx81bOoujya5tNmvaLa-89" edge="1">
          <mxGeometry relative="1" as="geometry" />
        </mxCell>
        <mxCell id="BHx81bOoujya5tNmvaLa-81" value="dataFalecimento" style="ellipse;whiteSpace=wrap;html=1;fontStyle=0" parent="1" vertex="1">
          <mxGeometry x="814" y="245" width="120" height="30" as="geometry" />
        </mxCell>
        <mxCell id="BHx81bOoujya5tNmvaLa-108" style="edgeStyle=none;rounded=0;orthogonalLoop=1;jettySize=auto;html=1;entryX=1;entryY=0.5;entryDx=0;entryDy=0;strokeColor=default;align=center;verticalAlign=middle;fontFamily=Helvetica;fontSize=11;fontColor=default;labelBackgroundColor=default;endArrow=none;endFill=0;" parent="1" source="BHx81bOoujya5tNmvaLa-84" target="BHx81bOoujya5tNmvaLa-89" edge="1">
          <mxGeometry relative="1" as="geometry" />
        </mxCell>
        <mxCell id="BHx81bOoujya5tNmvaLa-84" value="contacto" style="ellipse;whiteSpace=wrap;html=1;fontStyle=0" parent="1" vertex="1">
          <mxGeometry x="804" y="290" width="80" height="30" as="geometry" />
        </mxCell>
        <mxCell id="BHx81bOoujya5tNmvaLa-109" style="edgeStyle=none;rounded=0;orthogonalLoop=1;jettySize=auto;html=1;exitX=0;exitY=0;exitDx=0;exitDy=0;entryX=1;entryY=1;entryDx=0;entryDy=0;strokeColor=default;align=center;verticalAlign=middle;fontFamily=Helvetica;fontSize=11;fontColor=default;labelBackgroundColor=default;endArrow=none;endFill=0;" parent="1" source="BHx81bOoujya5tNmvaLa-86" target="BHx81bOoujya5tNmvaLa-89" edge="1">
          <mxGeometry relative="1" as="geometry" />
        </mxCell>
        <mxCell id="BHx81bOoujya5tNmvaLa-86" value="email" style="ellipse;whiteSpace=wrap;html=1;fontStyle=0" parent="1" vertex="1">
          <mxGeometry x="784" y="330" width="80" height="30" as="geometry" />
        </mxCell>
        <mxCell id="BHx81bOoujya5tNmvaLa-101" style="edgeStyle=none;rounded=0;orthogonalLoop=1;jettySize=auto;html=1;exitX=0.5;exitY=1;exitDx=0;exitDy=0;entryX=1;entryY=0.5;entryDx=0;entryDy=0;strokeColor=default;align=center;verticalAlign=middle;fontFamily=Helvetica;fontSize=11;fontColor=default;labelBackgroundColor=default;endArrow=none;endFill=0;" parent="1" source="BHx81bOoujya5tNmvaLa-89" target="BHx81bOoujya5tNmvaLa-98" edge="1">
          <mxGeometry relative="1" as="geometry" />
        </mxCell>
        <mxCell id="BHx81bOoujya5tNmvaLa-89" value="Pessoa" style="rounded=0;whiteSpace=wrap;html=1;" parent="1" vertex="1">
          <mxGeometry x="664" y="225" width="90" height="50" as="geometry" />
        </mxCell>
        <mxCell id="BHx81bOoujya5tNmvaLa-102" style="edgeStyle=orthogonalEdgeStyle;rounded=0;orthogonalLoop=1;jettySize=auto;html=1;exitX=0;exitY=0.25;exitDx=0;exitDy=0;entryX=1;entryY=0.5;entryDx=0;entryDy=0;strokeColor=default;align=center;verticalAlign=middle;fontFamily=Helvetica;fontSize=11;fontColor=default;labelBackgroundColor=default;endArrow=none;endFill=0;" parent="1" source="BHx81bOoujya5tNmvaLa-98" target="BHx81bOoujya5tNmvaLa-5" edge="1">
          <mxGeometry relative="1" as="geometry" />
        </mxCell>
        <mxCell id="BHx81bOoujya5tNmvaLa-103" style="edgeStyle=orthogonalEdgeStyle;rounded=0;orthogonalLoop=1;jettySize=auto;html=1;exitX=0;exitY=0.75;exitDx=0;exitDy=0;entryX=1;entryY=0.5;entryDx=0;entryDy=0;strokeColor=default;align=center;verticalAlign=middle;fontFamily=Helvetica;fontSize=11;fontColor=default;labelBackgroundColor=default;endArrow=none;endFill=0;" parent="1" source="BHx81bOoujya5tNmvaLa-98" target="BHx81bOoujya5tNmvaLa-53" edge="1">
          <mxGeometry relative="1" as="geometry" />
        </mxCell>
        <mxCell id="BHx81bOoujya5tNmvaLa-98" value="" style="triangle;whiteSpace=wrap;html=1;fontFamily=Helvetica;fontSize=11;fontColor=default;labelBackgroundColor=default;rotation=-91;" parent="1" vertex="1">
          <mxGeometry x="689" y="300" width="40" height="45" as="geometry" />
        </mxCell>
        <mxCell id="BHx81bOoujya5tNmvaLa-111" value="1..*" style="text;html=1;align=center;verticalAlign=middle;resizable=0;points=[];autosize=1;strokeColor=none;fillColor=none;fontFamily=Helvetica;fontSize=11;fontColor=default;labelBackgroundColor=default;" parent="1" vertex="1">
          <mxGeometry x="454" y="425" width="40" height="30" as="geometry" />
        </mxCell>
        <mxCell id="BHx81bOoujya5tNmvaLa-112" value="1..*" style="text;html=1;align=center;verticalAlign=middle;resizable=0;points=[];autosize=1;strokeColor=none;fillColor=none;fontFamily=Helvetica;fontSize=11;fontColor=default;labelBackgroundColor=default;" parent="1" vertex="1">
          <mxGeometry x="-200.5" y="434" width="40" height="30" as="geometry" />
        </mxCell>
        <mxCell id="BHx81bOoujya5tNmvaLa-117" style="edgeStyle=none;rounded=0;orthogonalLoop=1;jettySize=auto;html=1;exitX=1;exitY=1;exitDx=0;exitDy=0;strokeColor=default;align=center;verticalAlign=middle;fontFamily=Helvetica;fontSize=11;fontColor=default;labelBackgroundColor=default;endArrow=none;endFill=0;entryX=0;entryY=0.25;entryDx=0;entryDy=0;" parent="1" source="BHx81bOoujya5tNmvaLa-115" edge="1" target="BHx81bOoujya5tNmvaLa-24">
          <mxGeometry relative="1" as="geometry">
            <mxPoint x="120" y="400" as="targetPoint" />
          </mxGeometry>
        </mxCell>
        <mxCell id="BHx81bOoujya5tNmvaLa-118" value="0..*" style="edgeLabel;html=1;align=center;verticalAlign=middle;resizable=0;points=[];fontFamily=Helvetica;fontSize=11;fontColor=default;labelBackgroundColor=default;" parent="BHx81bOoujya5tNmvaLa-117" vertex="1" connectable="0">
          <mxGeometry x="0.7833" relative="1" as="geometry">
            <mxPoint x="3" y="-16" as="offset" />
          </mxGeometry>
        </mxCell>
        <mxCell id="BHx81bOoujya5tNmvaLa-115" value="&lt;span style=&quot;text-wrap: nowrap;&quot;&gt;pode ser vendido&lt;/span&gt;" style="rhombus;whiteSpace=wrap;html=1;fontFamily=Helvetica;fontSize=11;fontColor=default;labelBackgroundColor=default;" parent="1" vertex="1">
          <mxGeometry x="-52" y="245" width="136" height="52" as="geometry" />
        </mxCell>
        <mxCell id="BHx81bOoujya5tNmvaLa-119" value="0..*" style="text;html=1;align=center;verticalAlign=middle;resizable=0;points=[];autosize=1;strokeColor=none;fillColor=none;fontFamily=Helvetica;fontSize=11;fontColor=default;labelBackgroundColor=default;" parent="1" vertex="1">
          <mxGeometry x="-149.5" y="180" width="40" height="30" as="geometry" />
        </mxCell>
        <mxCell id="DlXQvSzPY2m-7Eqi57UK-2" style="edgeStyle=none;rounded=0;orthogonalLoop=1;jettySize=auto;html=1;exitX=0.5;exitY=1;exitDx=0;exitDy=0;entryX=0.25;entryY=0;entryDx=0;entryDy=0;strokeColor=default;align=center;verticalAlign=middle;fontFamily=Helvetica;fontSize=11;fontColor=default;labelBackgroundColor=default;endArrow=none;endFill=0;" edge="1" parent="1" source="DlXQvSzPY2m-7Eqi57UK-1" target="BHx81bOoujya5tNmvaLa-1">
          <mxGeometry relative="1" as="geometry" />
        </mxCell>
        <mxCell id="DlXQvSzPY2m-7Eqi57UK-1" value="língua" style="ellipse;whiteSpace=wrap;html=1;" vertex="1" parent="1">
          <mxGeometry x="10" y="71.5" width="60" height="30" as="geometry" />
        </mxCell>
        <mxCell id="DlXQvSzPY2m-7Eqi57UK-4" style="edgeStyle=none;rounded=0;orthogonalLoop=1;jettySize=auto;html=1;entryX=1;entryY=0.25;entryDx=0;entryDy=0;strokeColor=default;align=center;verticalAlign=middle;fontFamily=Helvetica;fontSize=11;fontColor=default;labelBackgroundColor=default;endArrow=none;endFill=0;" edge="1" parent="1" source="DlXQvSzPY2m-7Eqi57UK-3" target="BHx81bOoujya5tNmvaLa-24">
          <mxGeometry relative="1" as="geometry" />
        </mxCell>
        <mxCell id="DlXQvSzPY2m-7Eqi57UK-3" value="id" style="ellipse;whiteSpace=wrap;html=1;fontStyle=4" vertex="1" parent="1">
          <mxGeometry x="240" y="380" width="60" height="30" as="geometry" />
        </mxCell>
        <mxCell id="DlXQvSzPY2m-7Eqi57UK-6" style="edgeStyle=none;rounded=0;orthogonalLoop=1;jettySize=auto;html=1;entryX=1;entryY=0.75;entryDx=0;entryDy=0;strokeColor=default;align=center;verticalAlign=middle;fontFamily=Helvetica;fontSize=11;fontColor=default;labelBackgroundColor=default;endArrow=none;endFill=0;" edge="1" parent="1" source="DlXQvSzPY2m-7Eqi57UK-5" target="BHx81bOoujya5tNmvaLa-24">
          <mxGeometry relative="1" as="geometry" />
        </mxCell>
        <mxCell id="DlXQvSzPY2m-7Eqi57UK-5" value="nome" style="ellipse;whiteSpace=wrap;html=1;" vertex="1" parent="1">
          <mxGeometry x="240" y="416" width="60" height="30" as="geometry" />
        </mxCell>
        <mxCell id="DlXQvSzPY2m-7Eqi57UK-10" style="edgeStyle=none;rounded=0;orthogonalLoop=1;jettySize=auto;html=1;exitX=0.5;exitY=1;exitDx=0;exitDy=0;entryX=0.25;entryY=0;entryDx=0;entryDy=0;strokeColor=default;align=center;verticalAlign=middle;fontFamily=Helvetica;fontSize=11;fontColor=default;labelBackgroundColor=default;endArrow=none;endFill=0;" edge="1" parent="1" source="DlXQvSzPY2m-7Eqi57UK-9" target="BHx81bOoujya5tNmvaLa-35">
          <mxGeometry relative="1" as="geometry" />
        </mxCell>
        <mxCell id="DlXQvSzPY2m-7Eqi57UK-9" value="id" style="ellipse;whiteSpace=wrap;html=1;fontStyle=4" vertex="1" parent="1">
          <mxGeometry x="-290" y="60" width="60" height="30" as="geometry" />
        </mxCell>
        <mxCell id="DlXQvSzPY2m-7Eqi57UK-13" style="edgeStyle=none;rounded=0;orthogonalLoop=1;jettySize=auto;html=1;exitX=1;exitY=1;exitDx=0;exitDy=0;entryX=0;entryY=0.75;entryDx=0;entryDy=0;strokeColor=default;align=center;verticalAlign=middle;fontFamily=Helvetica;fontSize=11;fontColor=default;labelBackgroundColor=default;endArrow=none;endFill=0;" edge="1" parent="1" source="DlXQvSzPY2m-7Eqi57UK-11" target="BHx81bOoujya5tNmvaLa-24">
          <mxGeometry relative="1" as="geometry" />
        </mxCell>
        <mxCell id="DlXQvSzPY2m-7Eqi57UK-11" value="&lt;span style=&quot;text-wrap: nowrap;&quot;&gt;publicada em&lt;/span&gt;" style="rhombus;whiteSpace=wrap;html=1;fontFamily=Helvetica;fontSize=11;fontColor=default;labelBackgroundColor=default;" vertex="1" parent="1">
          <mxGeometry x="-120.5" y="346" width="136" height="52" as="geometry" />
        </mxCell>
        <mxCell id="DlXQvSzPY2m-7Eqi57UK-16" value="0..*" style="text;html=1;align=center;verticalAlign=middle;resizable=0;points=[];autosize=1;strokeColor=none;fillColor=none;fontFamily=Helvetica;fontSize=11;fontColor=default;labelBackgroundColor=default;" vertex="1" parent="1">
          <mxGeometry x="-170" y="203.5" width="40" height="30" as="geometry" />
        </mxCell>
        <mxCell id="DlXQvSzPY2m-7Eqi57UK-17" value="0..*" style="text;html=1;align=center;verticalAlign=middle;resizable=0;points=[];autosize=1;strokeColor=none;fillColor=none;fontFamily=Helvetica;fontSize=11;fontColor=default;labelBackgroundColor=default;" vertex="1" parent="1">
          <mxGeometry x="84" y="392.5" width="40" height="30" as="geometry" />
        </mxCell>
      </root>
    </mxGraphModel>
  </diagram>
</mxfile>
